<svg width="68" height="58" viewBox="0 0 68 58" fill="none" xmlns="http://www.w3.org/2000/svg">
<path d="M34.6851 55.1582L9.49911 30.4882C9.49843 30.4875 9.49775 30.4868 9.49707 30.4862C9.30512 30.297 9.11712 30.1121 8.93302 29.931C6.72048 27.7547 5.07087 26.1321 3.89763 24.3466C2.70094 22.5255 2 20.5156 2 17.552C2 8.99022 9.0506 2 17.8095 2C24.2172 2 29.4728 5.70537 32.4699 9.26607L34 11.084L35.5301 9.26607C38.5272 5.70537 43.7828 2 50.1905 2C58.9494 2 66 8.99022 66 17.552C66 20.2173 64.9353 24.3483 58.719 30.4781C54.1313 34.8681 45.566 43.806 38.3225 51.3646C37.0606 52.6815 35.8388 53.9564 34.6851 55.1582Z" stroke="#FE4E16" stroke-width="4"/>
</svg>
